<svg id="coughing" enable-background="new 0 0 300 300" height="512" viewBox="0 0 300 300" width="512" xmlns="http://www.w3.org/2000/svg"><g><path d="m249.412 153.58-3.817.023c-.664-1.896-1.797-3.621-3.316-4.992-2.543-2.297-5.961-3.418-9.371-3.064l-14.226 1.453c-1.675.192-3.291.638-4.829 1.274-.247-.494-.584-.942-1.019-1.3-.828-.688-1.918-1.022-2.972-.892l-7.574.81v-8.834h4c6.617 0 12-5.383 12-12 0-3.533-1.563-6.681-4-8.879v-25.121c0-31.98-26.02-58-58-58s-58 26.02-58 58v25.121c-2.437 2.198-4 5.346-4 8.879 0 6.617 5.383 12 12 12h4v4.482l-11.266 1.455c-18.356 1.312-32.734 16.754-32.734 35.154 0 10.012 4.277 19.584 11.738 26.262 2.501 2.238 5.29 4.075 8.262 5.5v55.146c0 2.209 1.789 4 4 4h136c2.211 0 4-1.791 4-4v-68.25h9.422c4.32 0 8.32-2.287 10.449-5.971 5.281-9.158 7.554-27.588 7.554-30.104 0-4.494-3.715-8.152-8.301-8.152zm-43.125-23.522h-4v-8h4c2.207 0 4 1.795 4 4s-1.793 4-4 4zm-100-38c0-27.57 22.43-50 50-50s50 22.43 50 50v22h-4v-5.828c0-1.207-.543-2.348-1.48-3.108-.938-.76-2.176-1.058-3.348-.805-43.672 9.254-54.813-25.518-55.266-26.992-.364-1.225-1.293-2.199-2.496-2.627-1.199-.418-2.539-.248-3.594.47l-24.074 16.467c-1.09.744-1.742 1.98-1.742 3.301v19.121h-4zm88 20.969v34.723l-76 8.142v-58.845l18.274-12.5c5.109 10.599 20.82 34.132 57.726 28.48zm-88 17.031c-2.207 0-4-1.795-4-4s1.793-4 4-4h4v8zm-32 49.092c0-14.224 11.113-26.16 25.531-27.197l10.469-1.348v6.145l-12.426 1.332c-2.196.234-3.785 2.207-3.551 4.402.218 2.053 1.953 3.574 3.972 3.574.141 0 .285-.008.43-.024l16-1.715 91.93-9.848 3.336 40.041-105.438 11.715c-7.688.861-15.414-1.619-21.18-6.778-5.764-5.16-9.073-12.559-9.073-20.299zm148 82.908h-24v-44c0-2.209-1.789-4-4-4s-4 1.791-4 4v44h-96v-48.449c2.376.5 4.802.785 7.254.785 1.293 0 2.59-.072 3.883-.217l109.305-12.144c2.134-.236 3.691-2.119 3.537-4.256.165.005.328.031.494.031h3.527zm20.942-74.219c-.7 1.215-2.051 1.969-3.52 1.969h-20.949c-.395 0-.774-.092-1.16-.148l-2.731-32.774c1.412-1.02 2.996-1.738 4.677-1.934l14.176-1.449c1.199-.102 2.32.252 3.195 1.045.883.795 1.367 1.886 1.367 3.074 0 .094.048.178.054.272-.006.094-.054.174-.054.27v7.375l-3.996.035v-3.789c0-1.951-1.43-3.549-3.356-3.875-1.941-.338-3.824.856-4.465 2.693-.039.115-1.031 2.82-5.574 4.502-2.07.768-3.129 3.068-2.36 5.141.77 2.07 3.055 3.121 5.141 2.363 1.348-.5 2.527-1.072 3.558-1.684.23.35.496.678.801.978 1.102 1.092 2.551 1.69 4.094 1.69h.054l8.305-.074c3.195-.025 5.797-2.662 5.797-5.879v-6.042l3.176-.019-.024-4 .277 4.348c-.042 1.848-2.245 18.567-6.483 25.912z"/><path d="m62.287 86.058c2.211 0 4-1.791 4-4v-8c0-2.209-1.789-4-4-4s-4 1.791-4 4v8c0 2.209 1.789 4 4 4z"/><path d="m66.287 98.058c0-2.209-1.789-4-4-4s-4 1.791-4 4v8c0 2.209 1.789 4 4 4s4-1.791 4-4z"/><path d="m54.287 86.058h-8c-2.211 0-4 1.791-4 4s1.789 4 4 4h8c2.211 0 4-1.791 4-4s-1.789-4-4-4z"/><path d="m86.297 38.495c2.362 0 4.276-1.915 4.276-4.277s-1.914-4.276-4.276-4.276-4.277 1.915-4.277 4.276c0 2.362 1.915 4.277 4.277 4.277z"/><path d="m70.287 94.058h8c2.211 0 4-1.791 4-4s-1.789-4-4-4h-8c-2.211 0-4 1.791-4 4s1.789 4 4 4z"/><path d="m143.553 122.263-12-4c-2.117-.705-4.359.436-5.058 2.529-.699 2.096.434 4.361 2.527 5.06l.617.205-.617.205c-2.094.699-3.226 2.965-2.527 5.06.558 1.676 2.117 2.736 3.793 2.736.418 0 .844-.066 1.266-.207l12-4c1.633-.545 2.734-2.072 2.734-3.795-.001-1.721-1.102-3.248-2.735-3.793z"/><path d="m169.022 122.263c-1.633.545-2.734 2.072-2.734 3.795s1.102 3.25 2.734 3.795l12 4c.422.141.848.207 1.266.207 1.676 0 3.234-1.06 3.793-2.736.699-2.096-.434-4.361-2.527-5.06l-.617-.205.617-.205c2.094-.699 3.227-2.965 2.527-5.06-.699-2.094-2.949-3.234-5.058-2.529z"/><path d="m230.287 122.058h12c2.211 0 4-1.791 4-4s-1.789-4-4-4h-12c-2.211 0-4 1.791-4 4s1.789 4 4 4z"/><path d="m230.291 110.058c.762 0 1.531-.217 2.215-.672l12-8c1.84-1.224 2.336-3.709 1.109-5.547-1.227-1.84-3.707-2.338-5.547-1.109l-12 8c-1.84 1.224-2.336 3.709-1.109 5.547.77 1.156 2.039 1.781 3.332 1.781z"/><path d="m232.506 126.73c-1.844-1.232-4.324-.73-5.547 1.109-1.227 1.838-.73 4.322 1.109 5.547l12 8c.684.455 1.453.672 2.215.672 1.293 0 2.562-.625 3.332-1.781 1.227-1.838.73-4.322-1.109-5.547z"/></g></svg>