<svg xmlns="http://www.w3.org/2000/svg" xmlns:xlink="http://www.w3.org/1999/xlink" viewBox="0 0 501 495"><defs><style>.cls-1,.cls-2,.cls-3{fill:none;stroke-miterlimit:10;}.cls-1{stroke-width:16px;stroke:url(#Degradado_sin_nombre);}.cls-2{stroke-width:4px;stroke:url(#Degradado_sin_nombre-2);}.cls-3{stroke-width:8px;stroke:url(#Degradado_sin_nombre-3);}</style><linearGradient id="Degradado_sin_nombre" y1="247.5" x2="501" y2="247.5" gradientUnits="userSpaceOnUse"><stop offset="0" stop-color="#fff"/><stop offset="1"/></linearGradient><linearGradient id="Degradado_sin_nombre-2" x1="77.4" y1="243" x2="452.54" y2="243" xlink:href="#Degradado_sin_nombre"/><linearGradient id="Degradado_sin_nombre-3" x1="17.66" y1="245" x2="468.66" y2="245" xlink:href="#Degradado_sin_nombre"/></defs><title>distancia social</title><g id="outline"><path id="social" d="M422.27,73.93l-115.86,116a28.06,28.06,0,0,0-15.54-4.69h-5.64V158.69a18.65,18.65,0,0,0-16-18.46,17,17,0,0,1,16-11.49h8.68a22.53,22.53,0,0,0,39.06,0h8.67A16.87,16.87,0,0,1,350.1,131l5.65-9.78a28.2,28.2,0,0,0-14.11-3.78H336V94.86a22.57,22.57,0,1,0-45.13,0v22.59h-5.64a28.16,28.16,0,0,0-22.56,11.31,28.18,28.18,0,0,0-22.57-11.31h-5.64V94.86a22.57,22.57,0,1,0-45.13,0v22.59h-5.64A28.24,28.24,0,0,0,156,140.65a22.61,22.61,0,0,0-17.39,22v22.59h-5.64a28.24,28.24,0,0,0-28.2,28.23v67.77a22.59,22.59,0,0,0,22.56,22.58v65.42L95.09,401.44l8,8L155.49,357V377.2H144.2v11.29h11.29v11.3H127.28v11.29h73.34a5.65,5.65,0,0,0,5.64-5.65v-5.64a5.65,5.65,0,0,0-.95-3.14L195,381.14V317.42l19.12-19.13a22.42,22.42,0,0,0,14.73,5.5v77.35l-10.33,15.51a5.65,5.65,0,0,0-1,3.14v5.64a5.64,5.64,0,0,0,5.64,5.65h79a5.65,5.65,0,0,0,5.65-5.65v-5.64a5.65,5.65,0,0,0-.95-3.14l-10.34-15.51V303.79a22.52,22.52,0,0,0,16.93-7.67,22.48,22.48,0,0,0,16.92,7.67v77.35L320,396.65a5.65,5.65,0,0,0-.95,3.14v5.64a5.64,5.64,0,0,0,5.64,5.65h79a5.64,5.64,0,0,0,5.64-5.65v-5.64a5.64,5.64,0,0,0-.94-3.14l-10.34-15.51V303.79a22.6,22.6,0,0,0,22.57-22.58V213.44a28.26,28.26,0,0,0-28.21-28.23h-5.64V162.62a22.61,22.61,0,0,0-15.67-21.5l59.15-59.2ZM313.44,128.74a11.3,11.3,0,0,1-11.29-11.29V106.16h22.57v11.29A11.29,11.29,0,0,1,313.44,128.74Zm0-45.17a11.31,11.31,0,0,1,11.28,11.29H302.15A11.31,11.31,0,0,1,313.44,83.57ZM285.23,377.2H268.31V303.79H257V377.2H240.1v-96h45.13ZM195,247.32h11.29v33.89A11.31,11.31,0,0,1,195,292.5Zm22.57,31.55v-9h8.94Zm24.9-9,42.79-42.83v42.83Zm50.77-50.82,12.93-12.94a16.87,16.87,0,0,1,1.66,7.29v45.18H296.51V219.09Zm48.43-33.88H336a28,28,0,0,0-11.33,2.39l17-17Zm11.28-11.29h22.57v11.29a11.29,11.29,0,1,1-22.57,0ZM290.87,196.5a16.84,16.84,0,0,1,7.29,1.66L240.1,256.28V219.09H228.82v39.53H217.54V213.44a17,17,0,0,1,16.92-16.94h8.68a22.53,22.53,0,0,0,39.06,0Zm-39.49-22.58H274v11.29a11.29,11.29,0,1,1-22.57,0ZM274,158.69v3.93H251.38V160l11.14-7.43A7.35,7.35,0,0,1,274,158.69Zm-73.33-52.53h22.56v11.29a11.28,11.28,0,1,1-22.56,0ZM211.9,83.57a11.3,11.3,0,0,1,11.28,11.29H200.62A11.29,11.29,0,0,1,211.9,83.57Zm-28.21,45.17h8.68a22.53,22.53,0,0,0,39.06,0h8.67a17,17,0,0,1,16.68,14.11l-.51.32-13.66,9.11a5.67,5.67,0,0,0-2.51,4.7v28.23h-5.64a28.16,28.16,0,0,0-22.56,11.31,28.17,28.17,0,0,0-22.57-11.31h-5.64V162.62A22.6,22.6,0,0,0,167.45,141,16.94,16.94,0,0,1,183.69,128.74Zm-33.84,45.18h22.56v11.29a11.28,11.28,0,1,1-22.56,0Zm11.28-22.59a11.3,11.3,0,0,1,11.28,11.29H149.85A11.29,11.29,0,0,1,161.13,151.33ZM132.92,196.5h8.68a22.53,22.53,0,0,0,39.06,0h8.67a17,17,0,0,1,16.93,16.94V236H195V219.09H183.69v50.82H138.56V219.09H127.28V236H116V213.44A17,17,0,0,1,132.92,196.5ZM116,281.21V247.32h11.28V292.5A11.3,11.3,0,0,1,116,281.21Zm22.56,76.71V281.21h45.13v31.54l-16.92,16.94v-25.9H155.49V341Zm28.21,41.87v-11.3h19.54l7.53,11.3Zm16.92-22.59H166.77V345.66l16.92-16.94Zm38.42-86.94,6.71-6.72v9A11.21,11.21,0,0,1,222.11,290.26Zm15.37,98.23H257v11.3H230Zm30.83,11.3v-11.3h19.54l7.52,11.3Zm28.2-107.29V269.91H307.8v11.3A11.31,11.31,0,0,1,296.51,292.5Zm22.57-11.29V247.32h11.28V292.5A11.29,11.29,0,0,1,319.08,281.21Zm67.69,96H369.85V303.79H358.57V377.2H341.64v-96h45.13ZM339,388.49h19.55v11.3H331.5Zm30.83,11.3v-11.3h19.54l7.52,11.3Zm28.2-107.29V247.32h11.28v33.89A11.29,11.29,0,0,1,398.05,292.5Zm-5.64-96a17,17,0,0,1,16.92,16.94V236H398.05V219.09H386.77v50.82H341.64V219.09H330.36V236H319.08V213.44A17,17,0,0,1,336,196.5h8.68a22.52,22.52,0,0,0,39.05,0Zm-28.2-45.17a11.31,11.31,0,0,1,11.28,11.29H352.92a11.14,11.14,0,0,1,.77-4.07l6.44-6.44A11.16,11.16,0,0,1,364.21,151.33Z" transform="translate(-0.37 -10)"/></g><g id="cuadra-tres"><rect id="distancia" class="cls-1" x="8" y="8" width="485" height="479"/></g><g id="caudra-uno"><polygon id="distan" class="cls-2" points="441.94 437 79.44 437 88 49 450.5 49 441.94 437"/></g><g id="cuadra-dos"><rect id="dis" class="cls-3" x="21.66" y="33" width="443" height="424"/></g></svg>