<svg id="Capa_1" data-name="Capa 1" xmlns="http://www.w3.org/2000/svg" xmlns:xlink="http://www.w3.org/1999/xlink" viewBox="0 0 350.53 360.66"><defs><style>.cls-1{fill:url(#Degradado_sin_nombre_11);}.cls-2{fill:url(#Degradado_sin_nombre_11-2);}.cls-3{fill:url(#Degradado_sin_nombre_11-4);}.cls-4{fill:url(#Degradado_sin_nombre_11-5);}.cls-5{fill:url(#Degradado_sin_nombre_11-6);}.cls-6{fill:url(#Degradado_sin_nombre_11-7);}.cls-7{fill:url(#Degradado_sin_nombre_11-10);}.cls-8{fill:url(#Degradado_sin_nombre_11-12);}.cls-9{fill:url(#Degradado_sin_nombre_11-13);}.cls-10{fill:url(#Degradado_sin_nombre_11-14);}.cls-11{fill:url(#Degradado_sin_nombre_11-15);}.cls-12{fill:none;stroke:#000;stroke-linecap:round;stroke-linejoin:round;stroke-width:6px;}</style><linearGradient id="Degradado_sin_nombre_11" x1="-219.34" y1="246.71" x2="-218.84" y2="246.71" gradientUnits="userSpaceOnUse"><stop offset="0" stop-color="#fff"/><stop offset="1"/></linearGradient><linearGradient id="Degradado_sin_nombre_11-2" x1="-219.34" y1="146.43" x2="-218.84" y2="146.43" xlink:href="#Degradado_sin_nombre_11"/><linearGradient id="Degradado_sin_nombre_11-4" x1="-219.34" y1="288.18" x2="-218.84" y2="288.18" xlink:href="#Degradado_sin_nombre_11"/><linearGradient id="Degradado_sin_nombre_11-5" x1="-219.34" y1="287.15" x2="-218.84" y2="287.15" xlink:href="#Degradado_sin_nombre_11"/><linearGradient id="Degradado_sin_nombre_11-6" x1="-219.34" y1="199.59" x2="-218.84" y2="199.59" xlink:href="#Degradado_sin_nombre_11"/><linearGradient id="Degradado_sin_nombre_11-7" x1="-219.34" y1="146.43" x2="-218.84" y2="146.43" xlink:href="#Degradado_sin_nombre_11"/><linearGradient id="Degradado_sin_nombre_11-10" x1="-219.34" y1="164.15" x2="-218.84" y2="164.15" xlink:href="#Degradado_sin_nombre_11"/><linearGradient id="Degradado_sin_nombre_11-12" x1="-219.34" y1="252.74" x2="-218.84" y2="252.74" xlink:href="#Degradado_sin_nombre_11"/><linearGradient id="Degradado_sin_nombre_11-13" x1="-219.34" y1="364.96" x2="-218.84" y2="364.96" xlink:href="#Degradado_sin_nombre_11"/><linearGradient id="Degradado_sin_nombre_11-14" x1="-219.34" y1="364.96" x2="-218.84" y2="364.96" xlink:href="#Degradado_sin_nombre_11"/><linearGradient id="Degradado_sin_nombre_11-15" x1="-219.34" y1="311.8" x2="-218.84" y2="311.8" xlink:href="#Degradado_sin_nombre_11"/></defs><title>lavado de manos</title><g id="handwash_·_clean_·_hygiene_·_wash_·_liquid" data-name="handwash · clean · hygiene · wash · liquid"><path class="cls-1" d="M432.65,361.3a15.3,15.3,0,0,1-.3,3.3,20.3,20.3,0,0,1-14.16,16.64,21.24,21.24,0,0,1,2.24,9.65,20.86,20.86,0,0,1-6,14.6,19.69,19.69,0,0,1-14.12,6h-.15a20.08,20.08,0,0,1-9.07-2.25,20.68,20.68,0,0,1-5,8.67l-.23.23A19.67,19.67,0,0,1,371.77,424h-.2a19.78,19.78,0,0,1-14.18-6.22l-7.22-7.39a20.22,20.22,0,0,1-4.63,7.45l-.23.23A19.67,19.67,0,0,1,331.23,424H331a19.74,19.74,0,0,1-14.17-6.22l-10.44-10.69A19.66,19.66,0,0,1,293,412.46H170.9a28,28,0,0,1-16-5l-5.68-3.9a16.33,16.33,0,0,0-9.31-2.91H95.21a6.16,6.16,0,0,1,0-12.31h44.72a28,28,0,0,1,16,5l5.67,3.9a16.42,16.42,0,0,0,9.32,2.91H293a8.61,8.61,0,0,0,0-17.22H250a6.16,6.16,0,0,1,0-12.31h71.67a8.61,8.61,0,0,0,0-17.22H250a6.16,6.16,0,0,1,0-12.31h83.14a8.61,8.61,0,0,0,0-17.22H250a6.16,6.16,0,0,1,0-12.31h71.71a8.69,8.69,0,0,0,6.7-13.72,4.88,4.88,0,0,0-.83-1,8.2,8.2,0,0,0-5.91-2.53H221.33a5.92,5.92,0,0,1-3.78-1.38,6.28,6.28,0,0,1-.87-8.65L240,254.36a2.46,2.46,0,0,1,.22-.25c.06-.07.12-.13.17-.2a17.9,17.9,0,0,0,0-24.74,3.48,3.48,0,0,0-2.58-1.16h0a3.8,3.8,0,0,0-2.7,1.16l-38.35,39.22a.5.5,0,0,1-.12.24.51.51,0,0,1-.21.12l-15.61,16a28.55,28.55,0,0,1-21.23,9.59H95.21a6.16,6.16,0,0,1,0-12.31h64.33a16.86,16.86,0,0,0,12.6-5.77L183.9,264.2l-25.62-26.39-7.22,7.49a5.94,5.94,0,0,1-8.5,0L91,192.14a6.31,6.31,0,0,1,0-8.73,5.89,5.89,0,0,1,8.5,0l47.35,48.83,89-91.71L177,79.93a6.32,6.32,0,0,1,0-8.74,5.89,5.89,0,0,1,8.5,0l63.07,65a6.35,6.35,0,0,1,0,8.73l-8.83,9,64.22,66.16a16.81,16.81,0,0,0,12.87,5.06l76.85.29a16,16,0,0,1,15.73,16.2c0,16.23-12.82,29.59-28.57,29.78l-24.36,2.78,70.23,72.34a21,21,0,0,1,4.4,6.77A21.92,21.92,0,0,1,432.65,361.3Zm-.79,3.21a15,15,0,0,0,.29-3.21,20.86,20.86,0,0,0-5.84-14.41l-70.58-72.71a.23.23,0,0,1-.05-.26.24.24,0,0,1,.2-.16l24.89-2.84c15.5-.19,28.1-13.33,28.1-29.28a15.45,15.45,0,0,0-15.24-15.7l-76.82-.29a17.25,17.25,0,0,1-13.25-5.22l-64.39-66.32a.26.26,0,0,1,0-.35l9-9.22a5.82,5.82,0,0,0,0-8l-63.07-65a5.39,5.39,0,0,0-7.78,0,5.82,5.82,0,0,0,0,8l59.06,60.77a.26.26,0,0,1,0,.35L147,232.78a.27.27,0,0,1-.36,0l-47.53-49a5.39,5.39,0,0,0-7.78,0,5.8,5.8,0,0,0,0,8L142.92,245a5.43,5.43,0,0,0,7.78,0l7.4-7.68a.23.23,0,0,1,.18-.07.24.24,0,0,1,.18.07l26,26.76a.26.26,0,0,1,0,.35L172.5,276.6a17.33,17.33,0,0,1-13,5.93H95.21a5.66,5.66,0,0,0,0,11.31h64.38a28,28,0,0,0,20.86-9.43l15.6-16a.54.54,0,0,1,.22-.12.63.63,0,0,1,.13-.24l38.36-39.21a4.25,4.25,0,0,1,3-1.32,4,4,0,0,1,3,1.32,18.38,18.38,0,0,1,0,25.39,1.8,1.8,0,0,1-.2.23c-.06.07-.12.13-.17.2l-23.35,30a5.79,5.79,0,0,0,.8,8,5.46,5.46,0,0,0,3.46,1.26H321.68a8.66,8.66,0,0,1,6.26,2.67,5.61,5.61,0,0,1,.89,1,9.26,9.26,0,0,1-5.26,14.32,9.93,9.93,0,0,1-1.89.19H250a5.66,5.66,0,0,0,0,11.31h83.14a9.11,9.11,0,0,1,0,18.22H250a5.66,5.66,0,0,0,0,11.31h71.67a9.11,9.11,0,0,1,0,18.22H250a5.66,5.66,0,0,0,0,11.31h43a9.11,9.11,0,0,1,0,18.22H170.89a16.88,16.88,0,0,1-9.6-3l-5.68-3.9a27.51,27.51,0,0,0-15.68-4.91H95.21a5.66,5.66,0,0,0,0,11.31h44.73a16.8,16.8,0,0,1,9.59,3l5.68,3.89A27.48,27.48,0,0,0,170.9,412H293a19.18,19.18,0,0,0,13.25-5.36.25.25,0,0,1,.35,0l10.61,10.87A19.23,19.23,0,0,0,331,423.54h.19A19.17,19.17,0,0,0,345,417.76l.23-.23a19.76,19.76,0,0,0,4.65-7.64.24.24,0,0,1,.18-.17h.05a.24.24,0,0,1,.18.07l7.51,7.68a19.25,19.25,0,0,0,13.82,6.07h.2a19.18,19.18,0,0,0,13.72-5.78l.23-.23a20.15,20.15,0,0,0,5-8.75.26.26,0,0,1,.14-.17.33.33,0,0,1,.22,0,19.53,19.53,0,0,0,9.11,2.34h.15a19.14,19.14,0,0,0,13.76-5.82,20.32,20.32,0,0,0,5.85-14.25,20.73,20.73,0,0,0-2.32-9.69.26.26,0,0,1,0-.21.22.22,0,0,1,.17-.14A19.83,19.83,0,0,0,431.86,364.51Z" transform="translate(-86.2 -66.38)"/><path class="cls-2" d="M427.75,140.28a6.08,6.08,0,0,1,6,6.15,17.74,17.74,0,0,1-17.46,18c-9.62,0-17.45-8.06-17.45-18s7.83-18,17.45-18a6.16,6.16,0,0,1,0,12.32,5.66,5.66,0,1,0,5.49,5.65A6.07,6.07,0,0,1,427.75,140.28Zm5.74,6.15a5.74,5.74,0,1,0-11.47,0,5.74,5.74,0,1,1-5.74-5.9,5.91,5.91,0,0,0,0-11.82,17.73,17.73,0,1,0,17.21,17.72Z" transform="translate(-86.2 -66.38)"/><path class="cls-2" d="M427.75,140.53a5.82,5.82,0,0,1,5.74,5.9,17.21,17.21,0,1,1-17.21-17.72,5.91,5.91,0,0,1,0,11.82,5.91,5.91,0,1,0,5.74,5.9A5.82,5.82,0,0,1,427.75,140.53Zm5.49,5.9a5.49,5.49,0,1,0-11,0,6,6,0,1,1-6-6.15,5.66,5.66,0,0,0,0-11.32c-9.34,0-16.95,7.84-16.95,17.47s7.61,17.47,16.95,17.47A17.24,17.24,0,0,0,433.24,146.43Z" transform="translate(-86.2 -66.38)"/><path class="cls-3" d="M410.55,270.21c9.62,0,17.45,8.06,17.45,18s-7.83,18-17.45,18-17.45-8.06-17.45-18a6,6,0,1,1,12,0,5.49,5.49,0,1,0,5.48-5.65,6.16,6.16,0,0,1,0-12.32Zm16.95,18c0-9.63-7.6-17.47-16.95-17.47a5.66,5.66,0,0,0,0,11.32,6.16,6.16,0,1,1-6,6.15,5.49,5.49,0,1,0-11,0c0,9.63,7.6,17.47,16.95,17.47S427.5,297.81,427.5,288.18Z" transform="translate(-86.2 -66.38)"/><path class="cls-4" d="M421.18,361.3a7.25,7.25,0,0,1-.12,1.46,9.06,9.06,0,0,1-3.61,6,8.63,8.63,0,0,1-10,.22c-.6-.47-1.08-.86-1.46-1.21l-37.34-38.52a5.4,5.4,0,0,0-7.78,0,5.77,5.77,0,0,0,0,8l0,.06,0,0,0,0,45.35,46.78a9.26,9.26,0,0,1,0,12.87,8.79,8.79,0,0,1-12.51-.06l-40.59-41.76a5.36,5.36,0,0,0-4-1.33,5.43,5.43,0,0,0-3.76,2,5.78,5.78,0,0,0,0,7.37l.05,0L378,396.68a9.32,9.32,0,0,1,0,12.88,8.7,8.7,0,0,1-6.25,2.67h0a8.47,8.47,0,0,1-6.2-2.74l-25.62-26.28a5.27,5.27,0,0,0-3.8-1.7,5.36,5.36,0,0,0-3.85,1.56L332,383l.18.17a5.86,5.86,0,0,0,0,8l.06.06,0,0,0,0,5.21,5.37a9.18,9.18,0,0,1,2.6,6.44,9,9,0,0,1-2.66,6.37,8.61,8.61,0,0,1-6.2,2.67h0a8.64,8.64,0,0,1-6.2-2.63l-12.7-13a.24.24,0,0,1-.06-.23,21.53,21.53,0,0,0,.56-4.73,20.77,20.77,0,0,0-2-8.75.25.25,0,0,1,0-.24.25.25,0,0,1,.22-.12h10.6c10.93,0,19.82-9.16,19.82-20.42a20.53,20.53,0,0,0-2.55-9.8.24.24,0,0,1,0-.22.21.21,0,0,1,.15-.14c10.38-3.31,16.2-14.69,13-25.38a20,20,0,0,0-12.93-13.36A.29.29,0,0,1,339,313a.26.26,0,0,1,0-.21,20.81,20.81,0,0,0-1.31-21.83,19.29,19.29,0,0,0-2-2.45,19.53,19.53,0,0,0-13.93-5.94H233.27a.25.25,0,0,1-.22-.15.27.27,0,0,1,0-.26L248.78,262a30.1,30.1,0,0,0-.21-41.19,15,15,0,0,0-10.73-4.59h0A14.88,14.88,0,0,0,227,220.84l-34.46,35.21a.27.27,0,0,1-.36,0l-26-26.76a.26.26,0,0,1,0-.35l64.91-66.79a.24.24,0,0,1,.35,0l64.33,66.26A27.7,27.7,0,0,0,317,237l76.61.3h0a4,4,0,0,1,3,1.32,4.13,4.13,0,0,1,1.27,3.06c0,9.91-7.83,18-17.45,18a2.13,2.13,0,0,0-.57.05l-37.07,4.14a5.63,5.63,0,0,0-4.92,6.19,5.78,5.78,0,0,0,1.63,3.49l79.07,81.38A9.41,9.41,0,0,1,421.18,361.3Zm-.61,1.37a6.93,6.93,0,0,0,.11-1.36,9,9,0,0,0-2.45-6.1l-79.07-81.38A6.26,6.26,0,0,1,337.4,270a6.12,6.12,0,0,1,5.36-6.74l37-4.13a2.39,2.39,0,0,1,.67-.06c9.34,0,16.94-7.84,16.94-17.47a3.64,3.64,0,0,0-1.12-2.71,3.57,3.57,0,0,0-2.62-1.17h0l-76.6-.3a28.17,28.17,0,0,1-21.63-8.7l-64.15-66.08-64.55,66.44,25.68,26.4,34.28-35a15.34,15.34,0,0,1,11.07-4.8h0a15.51,15.51,0,0,1,11.14,4.74,30.62,30.62,0,0,1,.23,41.87L233.78,282h88a20,20,0,0,1,14.29,6.09,19.47,19.47,0,0,1,2,2.52,21.29,21.29,0,0,1,1.48,22.08,20.53,20.53,0,0,1,13,13.6c3.26,10.85-2.58,22.4-13,25.91a20.76,20.76,0,0,1,2.37,8A15.05,15.05,0,0,1,342,362a21,21,0,0,1-11.52,18.85,19.62,19.62,0,0,1-8.8,2.07H311.47a21.22,21.22,0,0,1,1.86,8.61,22,22,0,0,1-.55,4.71l12.58,12.89a8.11,8.11,0,0,0,5.87,2.52h0a8.12,8.12,0,0,0,5.85-2.52,8.55,8.55,0,0,0,2.51-6,8.71,8.71,0,0,0-2.45-6.08L332,391.7a.34.34,0,0,1-.14-.15l0,0a6.35,6.35,0,0,1,0-8.73.76.76,0,0,0,.09-.09,6.05,6.05,0,0,1,.89-.73,5.73,5.73,0,0,1,3.21-1h.11a5.76,5.76,0,0,1,4.15,1.85l25.62,26.28a8,8,0,0,0,5.84,2.59h0a8.22,8.22,0,0,0,5.89-2.52,8.81,8.81,0,0,0,0-12.18l-32.45-33.49a6.24,6.24,0,0,1,0-8,5.88,5.88,0,0,1,4.1-2.13,5.78,5.78,0,0,1,4.34,1.46l40.61,41.77a8.31,8.31,0,0,0,11.8.06,8.77,8.77,0,0,0,0-12.17L360.7,337.77a.32.32,0,0,1-.14-.14v0a6.29,6.29,0,0,1,0-8.67,5.89,5.89,0,0,1,8.5,0l37.32,38.51c.37.32.83.7,1.41,1.15a8.06,8.06,0,0,0,3.27,1.28,8.17,8.17,0,0,0,6.11-1.49,8.62,8.62,0,0,0,3.41-5.71Z" transform="translate(-86.2 -66.38)"/><path class="cls-5" d="M404.82,193.43a6.08,6.08,0,0,1,6,6.16c0,9.91-7.83,18-17.45,18s-17.45-8.06-17.45-18,7.83-18,17.45-18a6.16,6.16,0,0,1,0,12.31,5.66,5.66,0,1,0,5.48,5.66A6.08,6.08,0,0,1,404.82,193.43Zm5.48,6.16a5.49,5.49,0,1,0-11,0,6,6,0,1,1-6-6.16,5.66,5.66,0,0,0,0-11.31c-9.35,0-17,7.84-17,17.47s7.6,17.47,17,17.47S410.3,209.22,410.3,199.59Z" transform="translate(-86.2 -66.38)"/><path class="cls-6" d="M359,122.56c12.78,0,23.18,10.71,23.18,23.87s-10.4,23.88-23.18,23.88-23.18-10.71-23.18-23.88S346.17,122.56,359,122.56Zm22.68,23.87c0-12.89-10.17-23.37-22.68-23.37s-22.68,10.48-22.68,23.37,10.17,23.38,22.68,23.38S381.63,159.32,381.63,146.43Z" transform="translate(-86.2 -66.38)"/><path class="cls-2" d="M359,134.37a12.06,12.06,0,1,1-11.72,12.06A11.91,11.91,0,0,1,359,134.37Zm11.22,12.06A11.23,11.23,0,1,0,359,158,11.41,11.41,0,0,0,370.17,146.43Z" transform="translate(-86.2 -66.38)"/><path class="cls-5" d="M330.28,181.62a18,18,0,0,1,0,35.94,6.16,6.16,0,0,1,0-12.32,5.66,5.66,0,1,0-5.48-5.65,6,6,0,1,1-12,0C312.83,189.68,320.66,181.62,330.28,181.62Zm17,18c0-9.63-7.6-17.47-17-17.47s-16.95,7.84-16.95,17.47a5.49,5.49,0,1,0,11,0,6,6,0,1,1,6,6.15,5.66,5.66,0,0,0,0,11.32C339.63,217.06,347.23,209.22,347.23,199.59Z" transform="translate(-86.2 -66.38)"/><path class="cls-7" d="M295.88,146.18c9.62,0,17.45,8.06,17.45,18s-7.83,18-17.45,18-17.45-8.06-17.45-18S286.26,146.18,295.88,146.18Zm16.95,18c0-9.63-7.6-17.47-16.95-17.47s-16.95,7.84-16.95,17.47,7.61,17.47,16.95,17.47S312.83,173.78,312.83,164.15Z" transform="translate(-86.2 -66.38)"/><path class="cls-7" d="M295.88,158a6.16,6.16,0,1,1-6,6.16A6.09,6.09,0,0,1,295.88,158Zm5.49,6.16a5.49,5.49,0,1,0-5.49,5.66A5.58,5.58,0,0,0,301.37,164.15Z" transform="translate(-86.2 -66.38)"/><path class="cls-8" d="M301.87,252.74a6,6,0,1,1-12,0,5.49,5.49,0,1,0-5.49,5.66,6.16,6.16,0,0,1,0,12.31c-9.62,0-17.45-8.06-17.45-18a17.46,17.46,0,1,1,34.91,0Zm-6,5.66a5.58,5.58,0,0,0,5.49-5.66,17,17,0,1,0-17,17.47,5.66,5.66,0,0,0,0-11.31,6.16,6.16,0,1,1,6-6.16A5.58,5.58,0,0,0,295.88,258.4Z" transform="translate(-86.2 -66.38)"/><path class="cls-9" d="M215.61,347a18,18,0,0,1,0,35.94c-9.62,0-17.45-8.06-17.45-18S206,347,215.61,347Zm16.95,18c0-9.63-7.6-17.47-16.95-17.47s-17,7.84-17,17.47,7.61,17.47,17,17.47S232.56,374.59,232.56,365Z" transform="translate(-86.2 -66.38)"/><path class="cls-10" d="M215.61,358.81a6.16,6.16,0,1,1-6,6.15A6.08,6.08,0,0,1,215.61,358.81ZM221.1,365a5.49,5.49,0,1,0-5.49,5.66A5.57,5.57,0,0,0,221.1,365Z" transform="translate(-86.2 -66.38)"/><path class="cls-11" d="M209.88,305.65a6.08,6.08,0,0,1,6,6.16,17.46,17.46,0,1,1-34.9,0c0-9.91,7.83-18,17.45-18a6.16,6.16,0,0,1,0,12.31,5.66,5.66,0,1,0,5.49,5.66A6.08,6.08,0,0,1,209.88,305.65Zm5.48,6.16a5.48,5.48,0,1,0-11,0,6,6,0,1,1-6-6.16,5.66,5.66,0,0,0,0-11.31,17.47,17.47,0,1,0,17,17.47Z" transform="translate(-86.2 -66.38)"/><path class="cls-12" d="M371.77,424h-.2a19.78,19.78,0,0,1-14.18-6.22l-7.22-7.39a20.22,20.22,0,0,1-4.63,7.45l-.23.23A19.67,19.67,0,0,1,331.23,424H331a19.74,19.74,0,0,1-14.17-6.22l-10.44-10.69A19.66,19.66,0,0,1,293,412.46H170.9a28,28,0,0,1-16-5l-5.68-3.9a16.33,16.33,0,0,0-9.31-2.91H95.21a6.16,6.16,0,0,1,0-12.31h44.72a28,28,0,0,1,16,5l5.67,3.9a16.42,16.42,0,0,0,9.32,2.91H293a8.61,8.61,0,0,0,0-17.22H250a6.16,6.16,0,0,1,0-12.31h71.67a8.61,8.61,0,0,0,0-17.22H250a6.16,6.16,0,0,1,0-12.31h83.14a8.61,8.61,0,0,0,0-17.22H250a6.16,6.16,0,0,1,0-12.31h71.71a8.69,8.69,0,0,0,6.7-13.72,4.88,4.88,0,0,0-.83-1,8.2,8.2,0,0,0-5.91-2.53H221.33a5.92,5.92,0,0,1-3.78-1.38,6.28,6.28,0,0,1-.87-8.65L240,254.36a2.46,2.46,0,0,1,.22-.25c.06-.07.12-.13.17-.2a17.9,17.9,0,0,0,0-24.74,3.48,3.48,0,0,0-2.58-1.16h0a3.8,3.8,0,0,0-2.7,1.16l-38.35,39.22a.5.5,0,0,1-.12.24.51.51,0,0,1-.21.12l-15.61,16a28.55,28.55,0,0,1-21.23,9.59H95.21a6.16,6.16,0,0,1,0-12.31h64.33a16.86,16.86,0,0,0,12.6-5.77L183.9,264.2l-25.62-26.39-7.22,7.49a5.94,5.94,0,0,1-8.5,0L91,192.14a6.31,6.31,0,0,1,0-8.73,5.89,5.89,0,0,1,8.5,0l47.35,48.83,89-91.71L177,79.93a6.32,6.32,0,0,1,0-8.74,5.89,5.89,0,0,1,8.5,0l63.07,65a6.35,6.35,0,0,1,0,8.73l-8.83,9,64.22,66.16a16.81,16.81,0,0,0,12.87,5.06l76.85.29a16,16,0,0,1,15.73,16.2c0,16.23-12.82,29.59-28.57,29.78l-24.36,2.78,70.23,72.34a21,21,0,0,1,4.4,6.77,21.92,21.92,0,0,1,1.58,8,15.3,15.3,0,0,1-.3,3.3,20.3,20.3,0,0,1-14.16,16.64,21.24,21.24,0,0,1,2.24,9.65,20.86,20.86,0,0,1-6,14.6,19.69,19.69,0,0,1-14.12,6h-.15a20.08,20.08,0,0,1-9.07-2.25,20.68,20.68,0,0,1-5,8.67l-.23.23A19.67,19.67,0,0,1,371.77,424Z" transform="translate(-86.2 -66.38)"/><path class="cls-12" d="M350.06,409.72a.24.24,0,0,1,.18.07l7.51,7.68a19.25,19.25,0,0,0,13.82,6.07h.2a19.18,19.18,0,0,0,13.72-5.78l.23-.23a20.15,20.15,0,0,0,5-8.75.26.26,0,0,1,.14-.17.33.33,0,0,1,.22,0,19.53,19.53,0,0,0,9.11,2.34h.15a19.14,19.14,0,0,0,13.76-5.82,20.32,20.32,0,0,0,5.85-14.25,20.73,20.73,0,0,0-2.32-9.69.26.26,0,0,1,0-.21.22.22,0,0,1,.17-.14,19.83,19.83,0,0,0,14.09-16.34,15,15,0,0,0,.29-3.21,20.86,20.86,0,0,0-5.84-14.41l-70.58-72.71a.23.23,0,0,1-.05-.26.24.24,0,0,1,.2-.16l24.89-2.84c15.5-.19,28.1-13.33,28.1-29.28a15.45,15.45,0,0,0-15.24-15.7l-76.82-.29a17.25,17.25,0,0,1-13.25-5.22l-64.39-66.32a.26.26,0,0,1,0-.35l9-9.22a5.82,5.82,0,0,0,0-8l-63.07-65a5.39,5.39,0,0,0-7.78,0,5.82,5.82,0,0,0,0,8l59.06,60.77a.26.26,0,0,1,0,.35L147,232.78a.27.27,0,0,1-.36,0l-47.53-49a5.39,5.39,0,0,0-7.78,0,5.8,5.8,0,0,0,0,8L142.92,245a5.43,5.43,0,0,0,7.78,0l7.4-7.68a.23.23,0,0,1,.18-.07.24.24,0,0,1,.18.07l26,26.76a.26.26,0,0,1,0,.35L172.5,276.6a17.33,17.33,0,0,1-13,5.93H95.21a5.66,5.66,0,0,0,0,11.31h64.38a28,28,0,0,0,20.86-9.43l15.6-16a.54.54,0,0,1,.22-.12.63.63,0,0,1,.13-.24l38.36-39.21a4.25,4.25,0,0,1,3-1.32,4,4,0,0,1,3,1.32,18.38,18.38,0,0,1,0,25.39,1.8,1.8,0,0,1-.2.23c-.06.07-.12.13-.17.2l-23.35,30a5.79,5.79,0,0,0,.8,8,5.46,5.46,0,0,0,3.46,1.26H321.68a8.66,8.66,0,0,1,6.26,2.67,5.61,5.61,0,0,1,.89,1,9.26,9.26,0,0,1-5.26,14.32,9.93,9.93,0,0,1-1.89.19H250a5.66,5.66,0,0,0,0,11.31h83.14a9.11,9.11,0,0,1,0,18.22H250a5.66,5.66,0,0,0,0,11.31h71.67a9.11,9.11,0,0,1,0,18.22H250a5.66,5.66,0,0,0,0,11.31h43a9.11,9.11,0,0,1,0,18.22H170.89a16.88,16.88,0,0,1-9.6-3l-5.68-3.9a27.51,27.51,0,0,0-15.68-4.91H95.21a5.66,5.66,0,0,0,0,11.31h44.73a16.8,16.8,0,0,1,9.59,3l5.68,3.89A27.48,27.48,0,0,0,170.9,412H293a19.18,19.18,0,0,0,13.25-5.36.25.25,0,0,1,.35,0l10.61,10.87A19.23,19.23,0,0,0,331,423.54h.19A19.17,19.17,0,0,0,345,417.76l.23-.23a19.76,19.76,0,0,0,4.65-7.64.24.24,0,0,1,.18-.17Z" transform="translate(-86.2 -66.38)"/><path class="cls-12" d="M371.73,412.23a8.47,8.47,0,0,1-6.2-2.74l-25.62-26.28a5.27,5.27,0,0,0-3.8-1.7,5.36,5.36,0,0,0-3.85,1.56L332,383l.18.17a5.86,5.86,0,0,0,0,8l.06.06,0,0,0,0,5.21,5.37a9.18,9.18,0,0,1,2.6,6.44,9,9,0,0,1-2.66,6.37,8.61,8.61,0,0,1-6.2,2.67h0a8.64,8.64,0,0,1-6.2-2.63l-12.7-13a.24.24,0,0,1-.06-.23,21.53,21.53,0,0,0,.56-4.73,20.77,20.77,0,0,0-2-8.75.25.25,0,0,1,0-.24.25.25,0,0,1,.22-.12h10.6c10.93,0,19.82-9.16,19.82-20.42a20.53,20.53,0,0,0-2.55-9.8.24.24,0,0,1,0-.22.21.21,0,0,1,.15-.14c10.38-3.31,16.2-14.69,13-25.38a20,20,0,0,0-12.93-13.36A.29.29,0,0,1,339,313a.26.26,0,0,1,0-.21,20.81,20.81,0,0,0-1.31-21.83,19.29,19.29,0,0,0-2-2.45,19.53,19.53,0,0,0-13.93-5.94H233.27a.25.25,0,0,1-.22-.15.27.27,0,0,1,0-.26L248.78,262a30.1,30.1,0,0,0-.21-41.19,15,15,0,0,0-10.73-4.59h0A14.88,14.88,0,0,0,227,220.84l-34.46,35.21a.27.27,0,0,1-.36,0l-26-26.76a.26.26,0,0,1,0-.35l64.91-66.79a.24.24,0,0,1,.35,0l64.33,66.26A27.7,27.7,0,0,0,317,237l76.61.3h0a4,4,0,0,1,3,1.32,4.13,4.13,0,0,1,1.27,3.06c0,9.91-7.83,18-17.45,18a2.13,2.13,0,0,0-.57.05l-37.07,4.14a5.63,5.63,0,0,0-4.92,6.19,5.78,5.78,0,0,0,1.63,3.49l79.07,81.38a9.41,9.41,0,0,1,2.59,6.44,7.25,7.25,0,0,1-.12,1.46,9.06,9.06,0,0,1-3.61,6,8.63,8.63,0,0,1-10,.22c-.6-.47-1.08-.86-1.46-1.21l-37.34-38.52a5.4,5.4,0,0,0-7.78,0,5.77,5.77,0,0,0,0,8l0,.06,0,0,0,0,45.35,46.78a9.26,9.26,0,0,1,0,12.87,8.79,8.79,0,0,1-12.51-.06l-40.59-41.76a5.36,5.36,0,0,0-4-1.33,5.43,5.43,0,0,0-3.76,2,5.78,5.78,0,0,0,0,7.37l.05,0L378,396.68a9.32,9.32,0,0,1,0,12.88,8.7,8.7,0,0,1-6.25,2.67Z" transform="translate(-86.2 -66.38)"/><path class="cls-12" d="M332.8,382a5.73,5.73,0,0,1,3.21-1h.11a5.76,5.76,0,0,1,4.15,1.85l25.62,26.28a8,8,0,0,0,5.84,2.59h0a8.22,8.22,0,0,0,5.89-2.52,8.81,8.81,0,0,0,0-12.18l-32.45-33.49a6.24,6.24,0,0,1,0-8,5.88,5.88,0,0,1,4.1-2.13,5.78,5.78,0,0,1,4.34,1.46l40.61,41.77a8.31,8.31,0,0,0,11.8.06,8.77,8.77,0,0,0,0-12.17L360.7,337.77a.32.32,0,0,1-.14-.14v0a6.29,6.29,0,0,1,0-8.67,5.89,5.89,0,0,1,8.5,0l37.32,38.51c.37.32.83.7,1.41,1.15a8.06,8.06,0,0,0,3.27,1.28,8.17,8.17,0,0,0,6.11-1.49,8.62,8.62,0,0,0,3.41-5.71h0a6.93,6.93,0,0,0,.11-1.36,9,9,0,0,0-2.45-6.1l-79.07-81.38A6.26,6.26,0,0,1,337.4,270a6.12,6.12,0,0,1,5.36-6.74l37-4.13a2.39,2.39,0,0,1,.67-.06c9.34,0,16.94-7.84,16.94-17.47a3.64,3.64,0,0,0-1.12-2.71,3.57,3.57,0,0,0-2.62-1.17h0l-76.6-.3a28.17,28.17,0,0,1-21.63-8.7l-64.15-66.08-64.55,66.44,25.68,26.4,34.28-35a15.34,15.34,0,0,1,11.07-4.8h0a15.51,15.51,0,0,1,11.14,4.74,30.62,30.62,0,0,1,.23,41.87L233.78,282h88a20,20,0,0,1,14.29,6.09,19.47,19.47,0,0,1,2,2.52,21.29,21.29,0,0,1,1.48,22.08,20.53,20.53,0,0,1,13,13.6c3.26,10.85-2.58,22.4-13,25.91a20.76,20.76,0,0,1,2.37,8A15.05,15.05,0,0,1,342,362a21,21,0,0,1-11.52,18.85,19.62,19.62,0,0,1-8.8,2.07H311.47a21.22,21.22,0,0,1,1.86,8.61,22,22,0,0,1-.55,4.71l12.58,12.89a8.11,8.11,0,0,0,5.87,2.52h0a8.12,8.12,0,0,0,5.85-2.52,8.55,8.55,0,0,0,2.51-6,8.71,8.71,0,0,0-2.45-6.08L332,391.7a.34.34,0,0,1-.14-.15l0,0a6.35,6.35,0,0,1,0-8.73.76.76,0,0,0,.09-.09A6.05,6.05,0,0,1,332.8,382Z" transform="translate(-86.2 -66.38)"/><path class="cls-12" d="M330.28,217.56a6.16,6.16,0,0,1,0-12.32,5.66,5.66,0,1,0-5.48-5.65,6,6,0,1,1-12,0c0-9.91,7.83-18,17.45-18a18,18,0,0,1,0,35.94Z" transform="translate(-86.2 -66.38)"/><path class="cls-12" d="M330.28,193.43a6.16,6.16,0,0,1,0,12.31,5.66,5.66,0,0,0,0,11.32c9.35,0,17-7.84,17-17.47s-7.6-17.47-17-17.47-16.95,7.84-16.95,17.47a5.49,5.49,0,1,0,11,0A6.08,6.08,0,0,1,330.28,193.43Z" transform="translate(-86.2 -66.38)"/><path class="cls-12" d="M410.55,306.15c-9.62,0-17.45-8.06-17.45-18a6,6,0,1,1,12,0,5.49,5.49,0,1,0,5.48-5.65,6.16,6.16,0,0,1,0-12.32c9.62,0,17.45,8.06,17.45,18S420.17,306.15,410.55,306.15Z" transform="translate(-86.2 -66.38)"/><path class="cls-12" d="M399.08,282.53a5.57,5.57,0,0,0-5.48,5.65c0,9.63,7.6,17.47,16.95,17.47s16.95-7.84,16.95-17.47-7.6-17.47-16.95-17.47a5.66,5.66,0,0,0,0,11.32,6.16,6.16,0,1,1-6,6.15A5.57,5.57,0,0,0,399.08,282.53Z" transform="translate(-86.2 -66.38)"/><path class="cls-12" d="M393.35,217.56c-9.62,0-17.45-8.06-17.45-18s7.83-18,17.45-18a6.16,6.16,0,0,1,0,12.31,5.66,5.66,0,1,0,5.48,5.66,6,6,0,1,1,12,0C410.8,209.5,403,217.56,393.35,217.56Z" transform="translate(-86.2 -66.38)"/><path class="cls-12" d="M393.35,182.12c-9.35,0-17,7.84-17,17.47s7.6,17.47,17,17.47,16.95-7.84,16.95-17.47a5.49,5.49,0,1,0-11,0,6,6,0,1,1-6-6.16,5.66,5.66,0,0,0,0-11.31Z" transform="translate(-86.2 -66.38)"/><path class="cls-12" d="M359,170.31c-12.78,0-23.18-10.71-23.18-23.88s10.4-23.87,23.18-23.87,23.18,10.71,23.18,23.87S371.73,170.31,359,170.31Z" transform="translate(-86.2 -66.38)"/><path class="cls-12" d="M359,123.06c-12.51,0-22.68,10.48-22.68,23.37s10.17,23.38,22.68,23.38,22.68-10.49,22.68-23.38S371.46,123.06,359,123.06Z" transform="translate(-86.2 -66.38)"/><ellipse class="cls-12" cx="272.74" cy="80.05" rx="11.72" ry="12.06"/><ellipse class="cls-12" cx="272.74" cy="80.05" rx="11.22" ry="11.56"/><path class="cls-12" d="M284.41,270.71c-9.62,0-17.45-8.06-17.45-18a17.46,17.46,0,1,1,34.91,0,6,6,0,1,1-12,0,5.49,5.49,0,1,0-5.49,5.66,6.16,6.16,0,0,1,0,12.31Z" transform="translate(-86.2 -66.38)"/><path class="cls-12" d="M284.41,235.28a17.47,17.47,0,0,0,0,34.93,5.66,5.66,0,0,0,0-11.31,6.16,6.16,0,1,1,6-6.16,5.49,5.49,0,1,0,11,0A17.23,17.23,0,0,0,284.41,235.28Z" transform="translate(-86.2 -66.38)"/><ellipse class="cls-12" cx="209.67" cy="97.77" rx="17.45" ry="17.97"/><ellipse class="cls-12" cx="209.67" cy="97.77" rx="16.95" ry="17.47"/><path class="cls-12" d="M295.88,170.31a6.16,6.16,0,1,1,6-6.16A6.08,6.08,0,0,1,295.88,170.31Z" transform="translate(-86.2 -66.38)"/><path class="cls-12" d="M295.88,158.49a5.66,5.66,0,1,0,5.49,5.66A5.58,5.58,0,0,0,295.88,158.49Z" transform="translate(-86.2 -66.38)"/><ellipse class="cls-12" cx="129.4" cy="298.58" rx="17.45" ry="17.97"/><ellipse class="cls-12" cx="129.4" cy="298.58" rx="16.95" ry="17.47"/><path class="cls-12" d="M215.61,371.12a6.16,6.16,0,1,1,6-6.16A6.08,6.08,0,0,1,215.61,371.12Z" transform="translate(-86.2 -66.38)"/><path class="cls-12" d="M215.61,359.31A5.66,5.66,0,1,0,221.1,365,5.57,5.57,0,0,0,215.61,359.31Z" transform="translate(-86.2 -66.38)"/><path class="cls-12" d="M198.41,329.77a17.73,17.73,0,0,1-17.45-18c0-9.91,7.83-18,17.45-18a6.16,6.16,0,0,1,0,12.31,5.66,5.66,0,1,0,5.49,5.66,6,6,0,1,1,12,0A17.73,17.73,0,0,1,198.41,329.77Z" transform="translate(-86.2 -66.38)"/><path class="cls-12" d="M198.41,294.34a17.47,17.47,0,1,0,17,17.47,5.48,5.48,0,1,0-11,0,6,6,0,1,1-6-6.16,5.66,5.66,0,0,0,0-11.31Z" transform="translate(-86.2 -66.38)"/><path class="cls-12" d="M416.28,164.15a17.47,17.47,0,0,0,17.21-17.72,5.74,5.74,0,1,0-11.47,0,5.74,5.74,0,1,1-5.74-5.9,5.91,5.91,0,0,0,0-11.82,17.73,17.73,0,0,0,0,35.44Z" transform="translate(-86.2 -66.38)"/><path class="cls-12" d="M416.28,164.4c-9.62,0-17.45-8.06-17.45-18s7.83-18,17.45-18a6.16,6.16,0,0,1,0,12.32,5.66,5.66,0,1,0,5.49,5.65,6,6,0,1,1,12,0A17.74,17.74,0,0,1,416.28,164.4Z" transform="translate(-86.2 -66.38)"/><path class="cls-12" d="M416.28,129c-9.34,0-16.95,7.84-16.95,17.47s7.61,17.47,16.95,17.47a17.24,17.24,0,0,0,17-17.47,5.49,5.49,0,1,0-11,0,6,6,0,1,1-6-6.15,5.66,5.66,0,0,0,0-11.32Z" transform="translate(-86.2 -66.38)"/></g></svg>